name Walk6.mot
datacolumns 19
datarows 25
range 1.59000000 1.61400000
endheader

                time	   L_ground_force_vx	   L_ground_force_vy	   L_ground_force_vz	   L_ground_force_px	   L_ground_force_py	   L_ground_force_pz	   R_ground_force_vx	   R_ground_force_vy	   R_ground_force_vz	   R_ground_force_px	   R_ground_force_py	   R_ground_force_pz	   L_ground_torque_x	   L_ground_torque_y	   L_ground_torque_z	   R_ground_torque_x	   R_ground_torque_y	   R_ground_torque_z	
          1.59000000	          0.00000000	          0.00000000	          0.00000000	          0.00000000	          0.00000000	          0.00000000	         21.52508128	        524.04449824	         33.82340140	         -0.33935243	          0.00000000	         -0.08297050	          0.00000000	          0.00000000	          0.00000000	          0.00000000	         -0.35353994	          0.00000000	
          1.59100000	          0.00000000	          0.00000000	          0.00000000	          0.00000000	          0.00000000	          0.00000000	         21.82035917	        525.60256661	         33.89696303	         -0.33891463	          0.00000000	         -0.08307671	          0.00000000	          0.00000000	          0.00000000	          0.00000000	         -0.35169310	          0.00000000	
          1.59200000	          0.00000000	          0.00000000	          0.00000000	          0.00000000	          0.00000000	          0.00000000	         22.11322067	        527.17956467	         33.97682185	         -0.33849634	          0.00000000	         -0.08317960	          0.00000000	          0.00000000	          0.00000000	          0.00000000	         -0.36063699	          0.00000000	
          1.59300000	          0.00000000	          0.00000000	          0.00000000	          0.00000000	          0.00000000	          0.00000000	         22.40641844	        528.76385625	         34.07317703	         -0.33811828	          0.00000000	         -0.08331244	          0.00000000	          0.00000000	          0.00000000	          0.00000000	         -0.37524250	          0.00000000	
          1.59400000	          0.00000000	          0.00000000	          0.00000000	          0.00000000	          0.00000000	          0.00000000	         22.70671106	        530.35536768	         34.18357126	         -0.33777322	          0.00000000	         -0.08350694	          0.00000000	          0.00000000	          0.00000000	          0.00000000	         -0.38365900	          0.00000000	
          1.59500000	          0.00000000	          0.00000000	          0.00000000	          0.00000000	          0.00000000	          0.00000000	         23.01879944	        531.94413771	         34.29853952	         -0.33744112	          0.00000000	         -0.08378270	          0.00000000	          0.00000000	          0.00000000	          0.00000000	         -0.37399208	          0.00000000	
          1.59600000	          0.00000000	          0.00000000	          0.00000000	          0.00000000	          0.00000000	          0.00000000	         23.34046031	        533.51896841	         34.41840700	         -0.33710934	          0.00000000	         -0.08412017	          0.00000000	          0.00000000	          0.00000000	          0.00000000	         -0.34430810	          0.00000000	
          1.59700000	          0.00000000	          0.00000000	          0.00000000	          0.00000000	          0.00000000	          0.00000000	         23.66573034	        535.10368526	         34.55720420	         -0.33677261	          0.00000000	         -0.08445438	          0.00000000	          0.00000000	          0.00000000	          0.00000000	         -0.30602317	          0.00000000	
          1.59800000	          0.00000000	          0.00000000	          0.00000000	          0.00000000	          0.00000000	          0.00000000	         23.99126547	        536.72566177	         34.72298057	         -0.33643189	          0.00000000	         -0.08470679	          0.00000000	          0.00000000	          0.00000000	          0.00000000	         -0.27577962	          0.00000000	
          1.59900000	          0.00000000	          0.00000000	          0.00000000	          0.00000000	          0.00000000	          0.00000000	         24.32047241	        538.37792679	         34.90382877	         -0.33609856	          0.00000000	         -0.08482903	          0.00000000	          0.00000000	          0.00000000	          0.00000000	         -0.26389402	          0.00000000	
          1.60000000	          0.00000000	          0.00000000	          0.00000000	          0.00000000	          0.00000000	          0.00000000	         24.66246457	        540.05006197	         35.07647605	         -0.33578369	          0.00000000	         -0.08482570	          0.00000000	          0.00000000	          0.00000000	          0.00000000	         -0.27145989	          0.00000000	
          1.60100000	          0.00000000	          0.00000000	          0.00000000	          0.00000000	          0.00000000	          0.00000000	         25.02488027	        541.75145034	         35.22398427	         -0.33548480	          0.00000000	         -0.08474635	          0.00000000	          0.00000000	          0.00000000	          0.00000000	         -0.29424418	          0.00000000	
          1.60200000	          0.00000000	          0.00000000	          0.00000000	          0.00000000	          0.00000000	          0.00000000	         25.40774960	        543.49441648	         35.34716136	         -0.33519088	          0.00000000	         -0.08466023	          0.00000000	          0.00000000	          0.00000000	          0.00000000	         -0.32513752	          0.00000000	
          1.60300000	          0.00000000	          0.00000000	          0.00000000	          0.00000000	          0.00000000	          0.00000000	         25.80531082	        545.28414759	         35.46134925	         -0.33489379	          0.00000000	         -0.08462123	          0.00000000	          0.00000000	          0.00000000	          0.00000000	         -0.35432893	          0.00000000	
          1.60400000	          0.00000000	          0.00000000	          0.00000000	          0.00000000	          0.00000000	          0.00000000	         26.21017039	        547.13328325	         35.58052324	         -0.33459301	          0.00000000	         -0.08464783	          0.00000000	          0.00000000	          0.00000000	          0.00000000	         -0.37183804	          0.00000000	
          1.60500000	          0.00000000	          0.00000000	          0.00000000	          0.00000000	          0.00000000	          0.00000000	         26.61456247	        549.07980127	         35.70264870	         -0.33429236	          0.00000000	         -0.08473314	          0.00000000	          0.00000000	          0.00000000	          0.00000000	         -0.37416948	          0.00000000	
          1.60600000	          0.00000000	          0.00000000	          0.00000000	          0.00000000	          0.00000000	          0.00000000	         27.01307412	        551.15646170	         35.81306252	         -0.33399717	          0.00000000	         -0.08485921	          0.00000000	          0.00000000	          0.00000000	          0.00000000	         -0.36733385	          0.00000000	
          1.60700000	          0.00000000	          0.00000000	          0.00000000	          0.00000000	          0.00000000	          0.00000000	         27.40343217	        553.33656369	         35.90504280	         -0.33371609	          0.00000000	         -0.08500488	          0.00000000	          0.00000000	          0.00000000	          0.00000000	         -0.36050299	          0.00000000	
          1.60800000	          0.00000000	          0.00000000	          0.00000000	          0.00000000	          0.00000000	          0.00000000	         27.78079663	        555.54042610	         35.99142770	         -0.33346095	          0.00000000	         -0.08514698	          0.00000000	          0.00000000	          0.00000000	          0.00000000	         -0.35804923	          0.00000000	
          1.60900000	          0.00000000	          0.00000000	          0.00000000	          0.00000000	          0.00000000	          0.00000000	         28.14051888	        557.68320187	         36.08950388	         -0.33324086	          0.00000000	         -0.08525760	          0.00000000	          0.00000000	          0.00000000	          0.00000000	         -0.35822678	          0.00000000	
          1.61000000	          0.00000000	          0.00000000	          0.00000000	          0.00000000	          0.00000000	          0.00000000	         28.49088136	        559.71721571	         36.20155573	         -0.33304941	          0.00000000	         -0.08531924	          0.00000000	          0.00000000	          0.00000000	          0.00000000	         -0.35824626	          0.00000000	
          1.61100000	          0.00000000	          0.00000000	          0.00000000	          0.00000000	          0.00000000	          0.00000000	         28.85148779	        561.66175262	         36.31755010	         -0.33286047	          0.00000000	         -0.08535019	          0.00000000	          0.00000000	          0.00000000	          0.00000000	         -0.35924218	          0.00000000	
          1.61200000	          0.00000000	          0.00000000	          0.00000000	          0.00000000	          0.00000000	          0.00000000	         29.23643841	        563.58773460	         36.43079490	         -0.33264810	          0.00000000	         -0.08539255	          0.00000000	          0.00000000	          0.00000000	          0.00000000	         -0.36412984	          0.00000000	
          1.61300000	          0.00000000	          0.00000000	          0.00000000	          0.00000000	          0.00000000	          0.00000000	         29.64525104	        565.55959103	         36.54587994	         -0.33240567	          0.00000000	         -0.08546648	          0.00000000	          0.00000000	          0.00000000	          0.00000000	         -0.37115657	          0.00000000	
          1.61400000	          0.00000000	          0.00000000	          0.00000000	          0.00000000	          0.00000000	          0.00000000	         30.07162877	        567.59230029	         36.67265250	         -0.33214195	          0.00000000	         -0.08555932	          0.00000000	          0.00000000	          0.00000000	          0.00000000	         -0.37336943	          0.00000000	
